M48
METRIC,LZ,000.000
;FILE_FORMAT=3:3
;TYPE=PLATED
;Layer: PTH_Through
;EasyEDA v6.5.22, 2023-03-23 09:10:29
;401f546e4c444c1f8d25b27506820300,e6e562115a5a45ecb989dda305b66076,10
;Gerber Generator version 0.2
;Holesize 1 = 0.889 mm
T01C0.889
;Holesize 2 = 0.901 mm
T02C0.901
;Holesize 3 = 1.016 mm
T03C1.016
;Holesize 4 = 2.750 mm
T04C2.750
%
G05
G90
T01
X137917Y-074410
X137917Y-076835
X140457Y-074410
X140457Y-076937
X142997Y-074410
X142997Y-076937
X145537Y-074410
X148077Y-074410
X148077Y-076937
X145537Y-076937
X150617Y-074410
X153157Y-074410
X153162Y-076937
X150622Y-076937
X155697Y-074410
X158237Y-074410
X158237Y-076937
X155697Y-076937
X160777Y-074410
X163317Y-074410
X163313Y-076937
X160773Y-076937
X165857Y-074410
X168397Y-074410
X168402Y-076937
X165862Y-076937
X170937Y-074410
X173477Y-074410
X173482Y-076937
X170942Y-076937
X176017Y-074410
X178557Y-074410
X178557Y-076937
X176017Y-076937
X181097Y-074410
X183637Y-074410
X183637Y-076937
X181097Y-076937
X186177Y-074410
X186177Y-076937
X181610Y-083566
X145447Y-114554
X145415Y-122809
X132461Y-083947
X132461Y-090297
X132461Y-096647
X132461Y-102997
X181737Y-123190
X132461Y-109347
X169926Y-114681
X169990Y-122936
X167386Y-122936
T02
X190750Y-090425
X190750Y-108965
X188210Y-108965
X177550Y-108965
X180090Y-108965
X180090Y-090425
X177550Y-090425
X188210Y-090425
T03
X184150Y-083566
X147987Y-114554
X150527Y-114554
X150527Y-122809
X147987Y-122809
X153067Y-122809
X135001Y-083947
X137541Y-083947
X137541Y-090297
X135001Y-090297
X137541Y-096647
X135001Y-096647
X137541Y-102997
X135001Y-102997
X184277Y-123190
X135001Y-109347
X137541Y-109347
X167386Y-114681
X164846Y-114681
X164910Y-122936
X153067Y-114554
T04
X191061Y-075644
X133038Y-075657
X133058Y-124678
X191064Y-124690
M30
