G04 Layer: BoardOutlineLayer*
G04 EasyEDA v6.5.22, 2023-03-23 09:10:29*
G04 401f546e4c444c1f8d25b27506820300,e6e562115a5a45ecb989dda305b66076,10*
G04 Gerber Generator version 0.2*
G04 Scale: 100 percent, Rotated: No, Reflected: No *
G04 Dimensions in millimeters *
G04 leading zeros omitted , absolute positions ,4 integer and 5 decimal *
%FSLAX45Y45*%
%MOMM*%

%ADD10C,0.2540*%
D10*
X12949174Y-12522174D02*
G01*
X12949174Y-7522184D01*
X19149161Y-12822174D02*
G01*
X13249173Y-12822174D01*
X19449161Y-7522184D02*
G01*
X19449161Y-12522174D01*
X13249173Y-7222185D02*
G01*
X19149161Y-7222185D01*
X12949176Y-12522174D02*
G01*
X12949176Y-7522182D01*
G75*
G01*
X13249173Y-12822174D02*
G02*
X12949174Y-12522175I0J299999D01*
G75*
G01*
X12949174Y-7522185D02*
G02*
X13249173Y-7222185I299999J0D01*
G75*
G01*
X19149162Y-7222186D02*
G02*
X19449161Y-7522185I0J-299999D01*
G75*
G01*
X19449161Y-12522175D02*
G02*
X19149162Y-12822174I-299999J0D01*
G75*
G01*
X13249174Y-12822174D02*
G02*
X12949174Y-12522175I0J299999D01*
G75*
G01*
X12949174Y-7522185D02*
G02*
X13249174Y-7222186I300000J0D01*
X13944600Y-8851900D02*
G01*
X13042900Y-8851900D01*
X13042900Y-8851900D02*
G01*
X13042900Y-8572500D01*
X13042900Y-8572500D02*
G01*
X13944600Y-8572500D01*
X13944600Y-8572500D02*
G01*
X13944600Y-8851900D01*
X13970000Y-8216900D02*
G01*
X13119100Y-8216900D01*
X13119100Y-8216900D02*
G01*
X13119100Y-7988300D01*
X13119100Y-7988300D02*
G01*
X13970000Y-7988300D01*
X13970000Y-7988300D02*
G01*
X13970000Y-8216900D01*
X13944600Y-9486900D02*
G01*
X13042900Y-9486900D01*
X13042900Y-9486900D02*
G01*
X13042900Y-9207500D01*
X13042900Y-9207500D02*
G01*
X13944600Y-9207500D01*
X13944600Y-9207500D02*
G01*
X13944600Y-9486900D01*
X13944600Y-10121900D02*
G01*
X13042900Y-10121900D01*
X13042900Y-10121900D02*
G01*
X13042900Y-9842500D01*
X13042900Y-9842500D02*
G01*
X13944600Y-9842500D01*
X13944600Y-9842500D02*
G01*
X13944600Y-10121900D01*
X13931900Y-10756900D02*
G01*
X13081000Y-10756900D01*
X13081000Y-10756900D02*
G01*
X13081000Y-10477500D01*
X13081000Y-10477500D02*
G01*
X13931900Y-10477500D01*
X13931900Y-10477500D02*
G01*
X13931900Y-10756900D01*

%LPD*%
M02*
