G04 Layer: BottomSolderMaskLayer*
G04 EasyEDA v6.5.22, 2023-03-23 09:10:29*
G04 401f546e4c444c1f8d25b27506820300,e6e562115a5a45ecb989dda305b66076,10*
G04 Gerber Generator version 0.2*
G04 Scale: 100 percent, Rotated: No, Reflected: No *
G04 Dimensions in millimeters *
G04 leading zeros omitted , absolute positions ,4 integer and 5 decimal *
%FSLAX45Y45*%
%MOMM*%

%AMMACRO1*1,1,$1,$2,$3*1,1,$1,$4,$5*1,1,$1,0-$2,0-$3*1,1,$1,0-$4,0-$5*20,1,$1,$2,$3,$4,$5,0*20,1,$1,$4,$5,0-$2,0-$3,0*20,1,$1,0-$2,0-$3,0-$4,0-$5,0*20,1,$1,0-$4,0-$5,$2,$3,0*4,1,4,$2,$3,$4,$5,0-$2,0-$3,0-$4,0-$5,$2,$3,0*%
%ADD10C,2.2032*%
%ADD11MACRO1,0.2032X-1X-1X-1X1*%
%ADD12C,1.8032*%
%ADD13C,6.2032*%
%ADD14C,1.7780*%
%ADD15MACRO1,0.2032X-0.7874X0.7874X0.7874X0.7874*%
%ADD16MACRO1,0.2032X-0.7875X0.7875X0.7875X0.7875*%
%ADD17C,1.7782*%
%ADD18MACRO1,0.2032X-0.8X0.8X0.8X0.8*%
%ADD19MACRO1,0.2032X0.8X-0.8X-0.8X-0.8*%

%LPD*%
D10*
G01*
X19075018Y-9042501D03*
G01*
X19075018Y-10896498D03*
G01*
X18821018Y-10896498D03*
D11*
G01*
X17754998Y-10896498D03*
G01*
X18008998Y-10896498D03*
G01*
X18008998Y-9042501D03*
G01*
X17754998Y-9042501D03*
D10*
G01*
X18821018Y-9042501D03*
D12*
G01*
X18415000Y-8356600D03*
D13*
G01*
X19106134Y-7564373D03*
G01*
X13303859Y-7565694D03*
G01*
X13305790Y-12467767D03*
G01*
X19106438Y-12469037D03*
D14*
G01*
X13791742Y-7441031D03*
D15*
G01*
X13791730Y-7683540D03*
D14*
G01*
X14045742Y-7441031D03*
G01*
X14045717Y-7693710D03*
D15*
G01*
X14299730Y-7441029D03*
D14*
G01*
X14299717Y-7693710D03*
G01*
X14553742Y-7441031D03*
G01*
X14807742Y-7441031D03*
D15*
G01*
X14807727Y-7693700D03*
D14*
G01*
X14553717Y-7693710D03*
G01*
X15061717Y-7441031D03*
G01*
X15315717Y-7441031D03*
G01*
X15316200Y-7693710D03*
G01*
X15062200Y-7693710D03*
G01*
X15569742Y-7441031D03*
G01*
X15823742Y-7441031D03*
G01*
X15823717Y-7693710D03*
G01*
X15569717Y-7693710D03*
G01*
X16077742Y-7441031D03*
G01*
X16331742Y-7441031D03*
G01*
X16331260Y-7693710D03*
G01*
X16077260Y-7693710D03*
G01*
X16585717Y-7441031D03*
G01*
X16839717Y-7441031D03*
G01*
X16840200Y-7693710D03*
G01*
X16586200Y-7693710D03*
G01*
X17093717Y-7441031D03*
G01*
X17347717Y-7441031D03*
G01*
X17348200Y-7693710D03*
G01*
X17094200Y-7693710D03*
G01*
X17601717Y-7441031D03*
G01*
X17855717Y-7441031D03*
G01*
X17855717Y-7693710D03*
G01*
X17601717Y-7693710D03*
G01*
X18109742Y-7441031D03*
G01*
X18363742Y-7441031D03*
G01*
X18363717Y-7693710D03*
G01*
X18109717Y-7693710D03*
G01*
X18617742Y-7441031D03*
G01*
X18617717Y-7693710D03*
D16*
G01*
X18161000Y-8356600D03*
D17*
G01*
X14544675Y-11455400D03*
D18*
G01*
X14798675Y-11455400D03*
G01*
X15052675Y-11455400D03*
G01*
X15052675Y-12280900D03*
G01*
X14798675Y-12280900D03*
D17*
G01*
X14541500Y-12280900D03*
D18*
G01*
X15306675Y-12280900D03*
D17*
G01*
X13246100Y-8394700D03*
D12*
G01*
X13500100Y-8394700D03*
D18*
G01*
X13754100Y-8394700D03*
G01*
X13754100Y-9029700D03*
D12*
G01*
X13500100Y-9029700D03*
D17*
G01*
X13246100Y-9029700D03*
D18*
G01*
X13754100Y-9664700D03*
D12*
G01*
X13500100Y-9664700D03*
D17*
G01*
X13246100Y-9664700D03*
D18*
G01*
X13754100Y-10299700D03*
D12*
G01*
X13500100Y-10299700D03*
D17*
G01*
X13246100Y-10299700D03*
D16*
G01*
X18173700Y-12319000D03*
D12*
G01*
X18427700Y-12319000D03*
D17*
G01*
X13246100Y-10934700D03*
D12*
G01*
X13500100Y-10934700D03*
D18*
G01*
X13754100Y-10934700D03*
D17*
G01*
X16992600Y-11468100D03*
D12*
G01*
X16738600Y-11468100D03*
D19*
G01*
X16484600Y-11468100D03*
D17*
G01*
X16998950Y-12293600D03*
D19*
G01*
X16490950Y-12293600D03*
D18*
G01*
X15306675Y-11455400D03*
D17*
G01*
X16738600Y-12293600D03*
M02*
