G04 Layer: TopSilkscreenLayer*
G04 EasyEDA v6.5.22, 2023-03-23 09:10:29*
G04 401f546e4c444c1f8d25b27506820300,e6e562115a5a45ecb989dda305b66076,10*
G04 Gerber Generator version 0.2*
G04 Scale: 100 percent, Rotated: No, Reflected: No *
G04 Dimensions in millimeters *
G04 leading zeros omitted , absolute positions ,4 integer and 5 decimal *
%FSLAX45Y45*%
%MOMM*%

%ADD10C,0.2032*%
%ADD11C,0.1524*%
%ADD12C,0.2540*%
%ADD13C,0.2500*%

%LPD*%
D10*
X18807429Y-8299450D02*
G01*
X18798286Y-8280908D01*
X18779743Y-8262365D01*
X18761456Y-8253221D01*
X18724372Y-8253221D01*
X18705829Y-8262365D01*
X18687541Y-8280908D01*
X18678143Y-8299450D01*
X18669000Y-8327136D01*
X18669000Y-8373110D01*
X18678143Y-8401050D01*
X18687541Y-8419337D01*
X18705829Y-8437879D01*
X18724372Y-8447024D01*
X18761456Y-8447024D01*
X18779743Y-8437879D01*
X18798286Y-8419337D01*
X18807429Y-8401050D01*
X18942304Y-8253221D02*
G01*
X18868390Y-8447024D01*
X18942304Y-8253221D02*
G01*
X19016218Y-8447024D01*
X18896329Y-8382508D02*
G01*
X18988531Y-8382508D01*
X19077177Y-8253221D02*
G01*
X19077177Y-8447024D01*
X19077177Y-8253221D02*
G01*
X19160490Y-8253221D01*
X19188175Y-8262365D01*
X19197320Y-8271510D01*
X19206463Y-8290052D01*
X19206463Y-8317737D01*
X19197320Y-8336279D01*
X19188175Y-8345423D01*
X19160490Y-8354821D01*
X19077177Y-8354821D01*
X19267424Y-8290052D02*
G01*
X19285966Y-8280908D01*
X19313652Y-8253221D01*
X19313652Y-8447024D01*
X17348197Y-12228258D02*
G01*
X17348197Y-12422314D01*
X17348197Y-12228258D02*
G01*
X17431255Y-12228258D01*
X17458941Y-12237402D01*
X17468339Y-12246800D01*
X17477483Y-12265088D01*
X17477483Y-12293028D01*
X17468339Y-12311316D01*
X17458941Y-12320714D01*
X17431255Y-12329858D01*
X17348197Y-12329858D01*
X17538443Y-12228258D02*
G01*
X17584671Y-12422314D01*
X17630899Y-12228258D02*
G01*
X17584671Y-12422314D01*
X17630899Y-12228258D02*
G01*
X17677127Y-12422314D01*
X17723101Y-12228258D02*
G01*
X17677127Y-12422314D01*
X17784061Y-12228258D02*
G01*
X17784061Y-12422314D01*
X17784061Y-12228258D02*
G01*
X17867373Y-12228258D01*
X17895059Y-12237402D01*
X17904203Y-12246800D01*
X17913347Y-12265088D01*
X17913347Y-12283630D01*
X17904203Y-12302172D01*
X17895059Y-12311316D01*
X17867373Y-12320714D01*
X17784061Y-12320714D01*
X17848831Y-12320714D02*
G01*
X17913347Y-12422314D01*
X15646400Y-11402821D02*
G01*
X15646400Y-11596624D01*
X15646400Y-11402821D02*
G01*
X15766541Y-11402821D01*
X15646400Y-11495024D02*
G01*
X15720313Y-11495024D01*
X15901416Y-11402821D02*
G01*
X15827502Y-11596624D01*
X15901416Y-11402821D02*
G01*
X15975329Y-11596624D01*
X15855188Y-11532108D02*
G01*
X15947390Y-11532108D01*
X16036290Y-11402821D02*
G01*
X16036290Y-11596624D01*
X16036290Y-11402821D02*
G01*
X16165575Y-11596624D01*
X16165575Y-11402821D02*
G01*
X16165575Y-11596624D01*
X16226536Y-11439652D02*
G01*
X16244824Y-11430508D01*
X16272509Y-11402821D01*
X16272509Y-11596624D01*
X15582900Y-12228321D02*
G01*
X15582900Y-12422124D01*
X15582900Y-12228321D02*
G01*
X15703041Y-12228321D01*
X15582900Y-12320524D02*
G01*
X15656813Y-12320524D01*
X15837916Y-12228321D02*
G01*
X15764002Y-12422124D01*
X15837916Y-12228321D02*
G01*
X15911829Y-12422124D01*
X15791688Y-12357608D02*
G01*
X15883890Y-12357608D01*
X15972790Y-12228321D02*
G01*
X15972790Y-12422124D01*
X15972790Y-12228321D02*
G01*
X16102075Y-12422124D01*
X16102075Y-12228321D02*
G01*
X16102075Y-12422124D01*
X16172179Y-12274550D02*
G01*
X16172179Y-12265152D01*
X16181324Y-12246610D01*
X16190722Y-12237465D01*
X16209009Y-12228321D01*
X16246093Y-12228321D01*
X16264636Y-12237465D01*
X16273779Y-12246610D01*
X16282924Y-12265152D01*
X16282924Y-12283694D01*
X16273779Y-12302236D01*
X16255238Y-12329921D01*
X16163036Y-12422124D01*
X16292322Y-12422124D01*
X13754100Y-11390121D02*
G01*
X13754100Y-11583924D01*
X13754100Y-11583924D02*
G01*
X13864843Y-11583924D01*
X13925804Y-11390121D02*
G01*
X13925804Y-11583924D01*
X13925804Y-11390121D02*
G01*
X14045945Y-11390121D01*
X13925804Y-11482324D02*
G01*
X13999718Y-11482324D01*
X13925804Y-11583924D02*
G01*
X14045945Y-11583924D01*
X14106906Y-11390121D02*
G01*
X14106906Y-11583924D01*
X14106906Y-11390121D02*
G01*
X14171675Y-11390121D01*
X14199361Y-11399265D01*
X14217650Y-11417808D01*
X14227047Y-11436350D01*
X14236191Y-11464036D01*
X14236191Y-11510010D01*
X14227047Y-11537950D01*
X14217650Y-11556237D01*
X14199361Y-11574779D01*
X14171675Y-11583924D01*
X14106906Y-11583924D01*
X14297152Y-11426952D02*
G01*
X14315693Y-11417808D01*
X14343379Y-11390121D01*
X14343379Y-11583924D01*
X13681069Y-12228324D02*
G01*
X13681069Y-12422126D01*
X13681069Y-12422126D02*
G01*
X13791813Y-12422126D01*
X13852773Y-12228324D02*
G01*
X13852773Y-12422126D01*
X13852773Y-12228324D02*
G01*
X13972915Y-12228324D01*
X13852773Y-12320526D02*
G01*
X13926687Y-12320526D01*
X13852773Y-12422126D02*
G01*
X13972915Y-12422126D01*
X14033875Y-12228324D02*
G01*
X14033875Y-12422126D01*
X14033875Y-12228324D02*
G01*
X14098645Y-12228324D01*
X14126331Y-12237468D01*
X14144619Y-12256010D01*
X14154017Y-12274552D01*
X14163161Y-12302238D01*
X14163161Y-12348212D01*
X14154017Y-12376152D01*
X14144619Y-12394440D01*
X14126331Y-12412982D01*
X14098645Y-12422126D01*
X14033875Y-12422126D01*
X14233519Y-12274552D02*
G01*
X14233519Y-12265154D01*
X14242663Y-12246612D01*
X14251807Y-12237468D01*
X14270349Y-12228324D01*
X14307179Y-12228324D01*
X14325721Y-12237468D01*
X14335119Y-12246612D01*
X14344263Y-12265154D01*
X14344263Y-12283696D01*
X14335119Y-12302238D01*
X14316577Y-12329924D01*
X14224121Y-12422126D01*
X14353407Y-12422126D01*
X13931900Y-8316721D02*
G01*
X13931900Y-8510524D01*
X13931900Y-8316721D02*
G01*
X14014958Y-8316721D01*
X14042643Y-8325865D01*
X14052041Y-8335010D01*
X14061186Y-8353552D01*
X14061186Y-8372094D01*
X14052041Y-8390636D01*
X14042643Y-8399779D01*
X14014958Y-8408924D01*
X13931900Y-8408924D02*
G01*
X14014958Y-8408924D01*
X14042643Y-8418321D01*
X14052041Y-8427465D01*
X14061186Y-8446008D01*
X14061186Y-8473694D01*
X14052041Y-8492236D01*
X14042643Y-8501379D01*
X14014958Y-8510524D01*
X13931900Y-8510524D01*
X13944600Y-8951721D02*
G01*
X13944600Y-9145524D01*
X13944600Y-8951721D02*
G01*
X14027658Y-8951721D01*
X14055343Y-8960865D01*
X14064741Y-8970010D01*
X14073886Y-8988552D01*
X14073886Y-9007094D01*
X14064741Y-9025636D01*
X14055343Y-9034779D01*
X14027658Y-9043924D01*
X13944600Y-9043924D01*
X14009370Y-9043924D02*
G01*
X14073886Y-9145524D01*
X14070329Y-9632950D02*
G01*
X14061186Y-9614408D01*
X14042643Y-9595865D01*
X14024356Y-9586721D01*
X13987272Y-9586721D01*
X13968729Y-9595865D01*
X13950441Y-9614408D01*
X13941043Y-9632950D01*
X13931900Y-9660636D01*
X13931900Y-9706610D01*
X13941043Y-9734550D01*
X13950441Y-9752837D01*
X13968729Y-9771379D01*
X13987272Y-9780524D01*
X14024356Y-9780524D01*
X14042643Y-9771379D01*
X14061186Y-9752837D01*
X14070329Y-9734550D01*
X14070329Y-9706610D01*
X14024356Y-9706610D02*
G01*
X14070329Y-9706610D01*
X13931900Y-10221721D02*
G01*
X13931900Y-10415524D01*
X13931900Y-10221721D02*
G01*
X14052041Y-10221721D01*
X13931900Y-10313924D02*
G01*
X14005813Y-10313924D01*
X14113002Y-10258552D02*
G01*
X14131290Y-10249408D01*
X14159229Y-10221721D01*
X14159229Y-10415524D01*
X13931900Y-10856721D02*
G01*
X13931900Y-11050524D01*
X13931900Y-10856721D02*
G01*
X14052041Y-10856721D01*
X13931900Y-10948924D02*
G01*
X14005813Y-10948924D01*
X14122145Y-10902950D02*
G01*
X14122145Y-10893552D01*
X14131290Y-10875010D01*
X14140688Y-10865865D01*
X14159229Y-10856721D01*
X14196059Y-10856721D01*
X14214602Y-10865865D01*
X14223745Y-10875010D01*
X14232890Y-10893552D01*
X14232890Y-10912094D01*
X14223745Y-10930636D01*
X14205204Y-10958321D01*
X14113002Y-11050524D01*
X14242288Y-11050524D01*
X17576800Y-11301221D02*
G01*
X17576800Y-11495024D01*
X17576800Y-11301221D02*
G01*
X17659858Y-11301221D01*
X17687543Y-11310365D01*
X17696941Y-11319510D01*
X17706086Y-11338052D01*
X17706086Y-11365737D01*
X17696941Y-11384279D01*
X17687543Y-11393424D01*
X17659858Y-11402821D01*
X17576800Y-11402821D01*
X17767045Y-11301221D02*
G01*
X17776190Y-11310365D01*
X17785588Y-11301221D01*
X17776190Y-11291824D01*
X17767045Y-11301221D01*
X17776190Y-11365737D02*
G01*
X17776190Y-11495024D01*
X17846548Y-11301221D02*
G01*
X17846548Y-11495024D01*
X17846548Y-11495024D02*
G01*
X17957291Y-11495024D01*
X18018252Y-11301221D02*
G01*
X18018252Y-11495024D01*
X18018252Y-11301221D02*
G01*
X18138393Y-11301221D01*
X18018252Y-11393424D02*
G01*
X18092166Y-11393424D01*
X18018252Y-11495024D02*
G01*
X18138393Y-11495024D01*
X18199354Y-11301221D02*
G01*
X18199354Y-11495024D01*
X18199354Y-11301221D02*
G01*
X18263870Y-11301221D01*
X18291809Y-11310365D01*
X18310098Y-11328908D01*
X18319495Y-11347450D01*
X18328640Y-11375136D01*
X18328640Y-11421110D01*
X18319495Y-11449050D01*
X18310098Y-11467337D01*
X18291809Y-11485879D01*
X18263870Y-11495024D01*
X18199354Y-11495024D01*
X18531840Y-11301221D02*
G01*
X18531840Y-11495024D01*
X18661125Y-11301221D02*
G01*
X18661125Y-11495024D01*
X18531840Y-11393424D02*
G01*
X18661125Y-11393424D01*
X18796000Y-11301221D02*
G01*
X18722086Y-11495024D01*
X18796000Y-11301221D02*
G01*
X18869913Y-11495024D01*
X18749772Y-11430508D02*
G01*
X18842227Y-11430508D01*
X18995390Y-11301221D02*
G01*
X18995390Y-11495024D01*
X18930874Y-11301221D02*
G01*
X19060159Y-11301221D01*
X17576800Y-11555221D02*
G01*
X17576800Y-11749024D01*
X17576800Y-11555221D02*
G01*
X17696941Y-11555221D01*
X17576800Y-11647424D02*
G01*
X17650713Y-11647424D01*
X17576800Y-11749024D02*
G01*
X17696941Y-11749024D01*
X17896331Y-11601450D02*
G01*
X17887188Y-11582908D01*
X17868645Y-11564365D01*
X17850104Y-11555221D01*
X17813274Y-11555221D01*
X17794731Y-11564365D01*
X17776190Y-11582908D01*
X17767045Y-11601450D01*
X17757902Y-11629136D01*
X17757902Y-11675110D01*
X17767045Y-11703050D01*
X17776190Y-11721337D01*
X17794731Y-11739879D01*
X17813274Y-11749024D01*
X17850104Y-11749024D01*
X17868645Y-11739879D01*
X17887188Y-11721337D01*
X17896331Y-11703050D01*
X17896331Y-11675110D01*
X17850104Y-11675110D02*
G01*
X17896331Y-11675110D01*
X17957291Y-11555221D02*
G01*
X17957291Y-11749024D01*
X17957291Y-11555221D02*
G01*
X18040350Y-11555221D01*
X18068290Y-11564365D01*
X18077434Y-11573510D01*
X18086577Y-11592052D01*
X18086577Y-11610594D01*
X18077434Y-11629136D01*
X18068290Y-11638279D01*
X18040350Y-11647424D01*
X17957291Y-11647424D01*
X18022061Y-11647424D02*
G01*
X18086577Y-11749024D01*
X18289777Y-11555221D02*
G01*
X18289777Y-11749024D01*
X18289777Y-11555221D02*
G01*
X18373090Y-11555221D01*
X18400775Y-11564365D01*
X18409920Y-11573510D01*
X18419063Y-11592052D01*
X18419063Y-11610594D01*
X18409920Y-11629136D01*
X18400775Y-11638279D01*
X18373090Y-11647424D01*
X18289777Y-11647424D01*
X18354548Y-11647424D02*
G01*
X18419063Y-11749024D01*
X18480024Y-11675110D02*
G01*
X18591022Y-11675110D01*
X18591022Y-11656821D01*
X18581624Y-11638279D01*
X18572479Y-11629136D01*
X18553938Y-11619737D01*
X18526252Y-11619737D01*
X18507709Y-11629136D01*
X18489422Y-11647424D01*
X18480024Y-11675110D01*
X18480024Y-11693652D01*
X18489422Y-11721337D01*
X18507709Y-11739879D01*
X18526252Y-11749024D01*
X18553938Y-11749024D01*
X18572479Y-11739879D01*
X18591022Y-11721337D01*
X18651981Y-11619737D02*
G01*
X18707354Y-11749024D01*
X18762725Y-11619737D02*
G01*
X18707354Y-11749024D01*
X18965925Y-11592052D02*
G01*
X18984468Y-11582908D01*
X19012154Y-11555221D01*
X19012154Y-11749024D01*
X19082258Y-11703050D02*
G01*
X19073113Y-11712194D01*
X19082258Y-11721337D01*
X19091656Y-11712194D01*
X19082258Y-11703050D01*
X19207988Y-11555221D02*
G01*
X19180302Y-11564365D01*
X19161759Y-11592052D01*
X19152616Y-11638279D01*
X19152616Y-11665965D01*
X19161759Y-11712194D01*
X19180302Y-11739879D01*
X19207988Y-11749024D01*
X19226529Y-11749024D01*
X19254216Y-11739879D01*
X19272504Y-11712194D01*
X19281902Y-11665965D01*
X19281902Y-11638279D01*
X19272504Y-11592052D01*
X19254216Y-11564365D01*
X19226529Y-11555221D01*
X19207988Y-11555221D01*
D11*
X17218982Y-9995009D02*
G01*
X17327948Y-9995009D01*
X17218982Y-9995009D02*
G01*
X17327948Y-9953353D01*
X17218982Y-9911951D02*
G01*
X17327948Y-9953353D01*
X17218982Y-9911951D02*
G01*
X17327948Y-9911951D01*
X17218982Y-9877661D02*
G01*
X17327948Y-9877661D01*
X17218982Y-9877661D02*
G01*
X17218982Y-9830925D01*
X17224062Y-9815177D01*
X17229396Y-9810097D01*
X17239810Y-9804763D01*
X17255304Y-9804763D01*
X17265718Y-9810097D01*
X17270798Y-9815177D01*
X17276132Y-9830925D01*
X17276132Y-9877661D01*
X17239810Y-9770473D02*
G01*
X17234476Y-9760059D01*
X17218982Y-9744565D01*
X17327948Y-9744565D01*
X17218982Y-9648045D02*
G01*
X17218982Y-9699861D01*
X17265718Y-9705195D01*
X17260638Y-9699861D01*
X17255304Y-9684367D01*
X17255304Y-9668619D01*
X17260638Y-9653125D01*
X17270798Y-9642711D01*
X17286546Y-9637631D01*
X17296960Y-9637631D01*
X17312454Y-9642711D01*
X17322868Y-9653125D01*
X17327948Y-9668619D01*
X17327948Y-9684367D01*
X17322868Y-9699861D01*
X17317788Y-9705195D01*
X17307374Y-9710275D01*
X17218982Y-9577179D02*
G01*
X17224062Y-9592927D01*
X17234476Y-9598007D01*
X17244890Y-9598007D01*
X17255304Y-9592927D01*
X17260638Y-9582513D01*
X17265718Y-9561685D01*
X17270798Y-9546191D01*
X17281212Y-9535777D01*
X17291626Y-9530443D01*
X17307374Y-9530443D01*
X17317788Y-9535777D01*
X17322868Y-9540857D01*
X17327948Y-9556605D01*
X17327948Y-9577179D01*
X17322868Y-9592927D01*
X17317788Y-9598007D01*
X17307374Y-9603341D01*
X17291626Y-9603341D01*
X17281212Y-9598007D01*
X17270798Y-9587593D01*
X17265718Y-9572099D01*
X17260638Y-9551271D01*
X17255304Y-9540857D01*
X17244890Y-9535777D01*
X17234476Y-9535777D01*
X17224062Y-9540857D01*
X17218982Y-9556605D01*
X17218982Y-9577179D01*
X17218982Y-9444337D02*
G01*
X17291626Y-9496153D01*
X17291626Y-9418429D01*
X17218982Y-9444337D02*
G01*
X17327948Y-9444337D01*
X17218982Y-9384139D02*
G01*
X17327948Y-9384139D01*
X17218982Y-9384139D02*
G01*
X17218982Y-9316575D01*
X17270798Y-9384139D02*
G01*
X17270798Y-9342483D01*
X17327948Y-9384139D02*
G01*
X17327948Y-9316575D01*
X17218982Y-9282285D02*
G01*
X17327948Y-9282285D01*
X17218982Y-9282285D02*
G01*
X17327948Y-9209387D01*
X17218982Y-9209387D02*
G01*
X17327948Y-9209387D01*
X17396713Y-9995103D02*
G01*
X17474691Y-9995103D01*
X17490186Y-9989769D01*
X17500600Y-9979355D01*
X17505934Y-9963861D01*
X17505934Y-9953447D01*
X17500600Y-9937953D01*
X17490186Y-9927539D01*
X17474691Y-9922205D01*
X17396713Y-9922205D01*
X17417541Y-9887915D02*
G01*
X17412461Y-9877501D01*
X17396713Y-9862007D01*
X17505934Y-9862007D01*
X17396713Y-9796475D02*
G01*
X17402048Y-9812223D01*
X17417541Y-9822637D01*
X17443450Y-9827717D01*
X17459198Y-9827717D01*
X17485106Y-9822637D01*
X17500600Y-9812223D01*
X17505934Y-9796475D01*
X17505934Y-9786061D01*
X17500600Y-9770567D01*
X17485106Y-9760153D01*
X17459198Y-9755073D01*
X17443450Y-9755073D01*
X17417541Y-9760153D01*
X17402048Y-9770567D01*
X17396713Y-9786061D01*
X17396713Y-9796475D01*
D10*
X17816898Y-9536785D02*
G01*
X17821470Y-9545929D01*
X17830614Y-9555073D01*
X17839758Y-9559391D01*
X17853220Y-9563963D01*
X17876080Y-9563963D01*
X17889796Y-9559391D01*
X17898686Y-9555073D01*
X17907830Y-9545929D01*
X17912402Y-9536785D01*
X17912402Y-9518497D01*
X17907830Y-9509607D01*
X17898686Y-9500463D01*
X17889796Y-9495891D01*
X17876080Y-9491319D01*
X17853220Y-9491319D01*
X17839758Y-9495891D01*
X17830614Y-9500463D01*
X17821470Y-9509607D01*
X17816898Y-9518497D01*
X17816898Y-9536785D01*
X17816898Y-9461347D02*
G01*
X17885224Y-9461347D01*
X17898686Y-9456775D01*
X17907830Y-9447631D01*
X17912402Y-9433915D01*
X17912402Y-9425025D01*
X17907830Y-9411309D01*
X17898686Y-9402165D01*
X17885224Y-9397593D01*
X17816898Y-9397593D01*
X17816898Y-9335871D02*
G01*
X17912402Y-9335871D01*
X17816898Y-9367621D02*
G01*
X17816898Y-9304121D01*
X17871508Y-9274149D02*
G01*
X17871508Y-9192107D01*
X18909098Y-9587585D02*
G01*
X18913670Y-9596729D01*
X18922814Y-9605873D01*
X18931958Y-9610191D01*
X18945420Y-9614763D01*
X18968280Y-9614763D01*
X18981996Y-9610191D01*
X18990886Y-9605873D01*
X19000030Y-9596729D01*
X19004602Y-9587585D01*
X19004602Y-9569297D01*
X19000030Y-9560407D01*
X18990886Y-9551263D01*
X18981996Y-9546691D01*
X18968280Y-9542119D01*
X18945420Y-9542119D01*
X18931958Y-9546691D01*
X18922814Y-9551263D01*
X18913670Y-9560407D01*
X18909098Y-9569297D01*
X18909098Y-9587585D01*
X18909098Y-9512147D02*
G01*
X18977424Y-9512147D01*
X18990886Y-9507575D01*
X19000030Y-9498431D01*
X19004602Y-9484715D01*
X19004602Y-9475825D01*
X19000030Y-9462109D01*
X18990886Y-9452965D01*
X18977424Y-9448393D01*
X18909098Y-9448393D01*
X18909098Y-9386671D02*
G01*
X19004602Y-9386671D01*
X18909098Y-9418421D02*
G01*
X18909098Y-9354921D01*
X18922814Y-9284055D02*
G01*
X19004602Y-9284055D01*
X18963708Y-9324949D02*
G01*
X18963708Y-9242907D01*
X18909098Y-10719663D02*
G01*
X19004602Y-10719663D01*
X18909098Y-10689691D02*
G01*
X19004602Y-10689691D01*
X18909098Y-10689691D02*
G01*
X19004602Y-10626191D01*
X18909098Y-10626191D02*
G01*
X19004602Y-10626191D01*
X18922814Y-10555071D02*
G01*
X19004602Y-10555071D01*
X18963708Y-10596219D02*
G01*
X18963708Y-10514177D01*
X17842298Y-10732363D02*
G01*
X17937802Y-10732363D01*
X17842298Y-10702391D02*
G01*
X17937802Y-10702391D01*
X17842298Y-10702391D02*
G01*
X17937802Y-10638891D01*
X17842298Y-10638891D02*
G01*
X17937802Y-10638891D01*
X17896908Y-10608919D02*
G01*
X17896908Y-10526877D01*
D12*
X18401098Y-9513201D02*
G01*
X18096298Y-9818001D01*
X18401098Y-10453001D02*
G01*
X18401098Y-9513201D01*
X18705898Y-9818001D02*
G01*
X18401098Y-9513201D01*
X17571991Y-11074501D02*
G01*
X17571991Y-8874505D01*
X19251998Y-8874505D01*
X19251998Y-11074501D01*
X17571991Y-11074501D01*
D13*
G75*
G01
X18618200Y-8356600D02*
G03X18618200Y-8356600I-330200J0D01*
D12*
X14391538Y-8080222D02*
G01*
X17392472Y-8080222D01*
X17392472Y-11081486D01*
X14391538Y-11081486D01*
X14391538Y-8080222D01*
X14427200Y-11277980D02*
G01*
X15430500Y-11277980D01*
X15430500Y-11735180D01*
X14427200Y-11735180D01*
X14427200Y-11277980D01*
X14411325Y-12103100D02*
G01*
X15433675Y-12103100D01*
X15433675Y-12560300D01*
X14411325Y-12560300D01*
X14411325Y-12103100D01*
X13106400Y-8255000D02*
G01*
X13893800Y-8255000D01*
X13893800Y-8534400D01*
X13106400Y-8534400D01*
X13106400Y-8255000D01*
X17970500Y-12096750D02*
G01*
X18630900Y-12096750D01*
X18630900Y-12566650D01*
X17970500Y-12566650D01*
X17970500Y-12096750D01*
X16332200Y-11290300D02*
G01*
X17106900Y-11290300D01*
X17106900Y-11747500D01*
X16332200Y-11747500D01*
X16332200Y-11290300D01*
X16338550Y-12115800D02*
G01*
X17113250Y-12115800D01*
X17113250Y-12573000D01*
X16338550Y-12573000D01*
X16338550Y-12115800D01*
X13106400Y-8890000D02*
G01*
X13893800Y-8890000D01*
X13893800Y-9169400D01*
X13106400Y-9169400D01*
X13106400Y-8890000D01*
X13106400Y-9525000D02*
G01*
X13893800Y-9525000D01*
X13893800Y-9804400D01*
X13106400Y-9804400D01*
X13106400Y-9525000D01*
X13106400Y-10160000D02*
G01*
X13893800Y-10160000D01*
X13893800Y-10439400D01*
X13106400Y-10439400D01*
X13106400Y-10160000D01*
X13106400Y-10795000D02*
G01*
X13893800Y-10795000D01*
X13893800Y-11074400D01*
X13106400Y-11074400D01*
X13106400Y-10795000D01*
M02*
