G04 Layer: BottomLayer*
G04 EasyEDA v6.5.22, 2023-03-23 09:10:29*
G04 401f546e4c444c1f8d25b27506820300,e6e562115a5a45ecb989dda305b66076,10*
G04 Gerber Generator version 0.2*
G04 Scale: 100 percent, Rotated: No, Reflected: No *
G04 Dimensions in millimeters *
G04 leading zeros omitted , absolute positions ,4 integer and 5 decimal *
%FSLAX45Y45*%
%MOMM*%

%ADD10C,0.2500*%
%ADD11C,0.5000*%
%ADD12C,2.0000*%
%ADD13R,2.0000X2.0000*%
%ADD14C,1.6000*%
%ADD15C,6.0000*%
%ADD16C,1.5748*%
%ADD17R,1.5748X1.5748*%
%ADD18R,1.5750X1.5750*%
%ADD19C,1.5750*%
%ADD20R,1.6000X1.6000*%

%LPD*%
D10*
X15052675Y-11455400D02*
G01*
X15052675Y-12280900D01*
X14798675Y-11455400D02*
G01*
X14798675Y-12280900D01*
X15306675Y-11455400D02*
G01*
X15306675Y-12280900D01*
D11*
X18173700Y-12319000D02*
G01*
X17754998Y-11900298D01*
X17754998Y-10896498D01*
X17754998Y-10896498D02*
G01*
X18008998Y-10896498D01*
X14807691Y-7693660D02*
G01*
X15100300Y-7988300D01*
X17792700Y-7988300D01*
X18161000Y-8356600D01*
X17755108Y-11900408D02*
G01*
X16611600Y-11899137D01*
X16490950Y-11778487D01*
X16484600Y-11468100D02*
G01*
X16490950Y-12293600D01*
X18821011Y-10896498D02*
G01*
X19075011Y-10896498D01*
X18427700Y-12319000D02*
G01*
X18427700Y-12509500D01*
X18249900Y-12687300D01*
X16294100Y-12687300D01*
X16154400Y-12547600D01*
X16154400Y-11328400D01*
X16306800Y-11176000D01*
X16637000Y-11176000D01*
X16738600Y-11277600D01*
X16738600Y-11468100D01*
X16738600Y-12293600D02*
G01*
X16738600Y-12560808D01*
X16865091Y-12687300D01*
X18427700Y-12319000D02*
G01*
X18427700Y-11289809D01*
X18821011Y-10896498D01*
D10*
X14544675Y-11455400D02*
G01*
X14541500Y-11458575D01*
D11*
X13754100Y-10299700D02*
G01*
X13931900Y-10298937D01*
X14058900Y-10171937D01*
X13754100Y-9664700D02*
G01*
X13932154Y-9664700D01*
X14058900Y-9537954D01*
X13754100Y-9029700D02*
G01*
X13931900Y-9029445D01*
X14058900Y-8902445D01*
X13754100Y-8394700D02*
G01*
X13919200Y-8393937D01*
X14058900Y-8254237D01*
X14807727Y-7693700D02*
G01*
X14807727Y-7696672D01*
X14516100Y-7988300D01*
X14198600Y-7988300D01*
X14058900Y-8128000D01*
X14058900Y-10807700D01*
X13931900Y-10934700D01*
X13754100Y-10934700D01*
X14045691Y-7440929D02*
G01*
X14185900Y-7302500D01*
X14185900Y-7302500D02*
G01*
X18669000Y-7302500D01*
X18745200Y-7378700D01*
X18745200Y-8026400D01*
X18415000Y-8356600D01*
X18821011Y-9042501D02*
G01*
X19075011Y-9042501D01*
X17754998Y-9042501D02*
G01*
X18008998Y-9042501D01*
X18008998Y-9042501D02*
G01*
X18161000Y-8890500D01*
X18161000Y-8356600D01*
X18415000Y-8356600D02*
G01*
X18415000Y-8636490D01*
X18821011Y-9042501D01*
X14541500Y-12280900D02*
G01*
X14544802Y-11455400D01*
X16294100Y-12687300D02*
G01*
X14719300Y-12687300D01*
X14541500Y-12509500D01*
X14541500Y-12280900D01*
D12*
G01*
X19075018Y-9042501D03*
G01*
X19075018Y-10896498D03*
G01*
X18821018Y-10896498D03*
D13*
G01*
X17755006Y-10896498D03*
G01*
X18009006Y-10896498D03*
G01*
X18009006Y-9042501D03*
G01*
X17755006Y-9042501D03*
D12*
G01*
X18821018Y-9042501D03*
D14*
G01*
X18415000Y-8356600D03*
D15*
G01*
X19106134Y-7564373D03*
G01*
X13303859Y-7565694D03*
G01*
X13305790Y-12467767D03*
G01*
X19106438Y-12469037D03*
D16*
G01*
X13791742Y-7441031D03*
D17*
G01*
X13791742Y-7683550D03*
D16*
G01*
X14045742Y-7441031D03*
G01*
X14045717Y-7693710D03*
D17*
G01*
X14299742Y-7441031D03*
D16*
G01*
X14299717Y-7693710D03*
G01*
X14553742Y-7441031D03*
G01*
X14807742Y-7441031D03*
D17*
G01*
X14807717Y-7693710D03*
D16*
G01*
X14553717Y-7693710D03*
G01*
X15061717Y-7441031D03*
G01*
X15315717Y-7441031D03*
G01*
X15316200Y-7693710D03*
G01*
X15062200Y-7693710D03*
G01*
X15569742Y-7441031D03*
G01*
X15823742Y-7441031D03*
G01*
X15823717Y-7693710D03*
G01*
X15569717Y-7693710D03*
G01*
X16077742Y-7441031D03*
G01*
X16331742Y-7441031D03*
G01*
X16331260Y-7693710D03*
G01*
X16077260Y-7693710D03*
G01*
X16585717Y-7441031D03*
G01*
X16839717Y-7441031D03*
G01*
X16840200Y-7693710D03*
G01*
X16586200Y-7693710D03*
G01*
X17093717Y-7441031D03*
G01*
X17347717Y-7441031D03*
G01*
X17348200Y-7693710D03*
G01*
X17094200Y-7693710D03*
G01*
X17601717Y-7441031D03*
G01*
X17855717Y-7441031D03*
G01*
X17855717Y-7693710D03*
G01*
X17601717Y-7693710D03*
G01*
X18109742Y-7441031D03*
G01*
X18363742Y-7441031D03*
G01*
X18363717Y-7693710D03*
G01*
X18109717Y-7693710D03*
G01*
X18617742Y-7441031D03*
G01*
X18617717Y-7693710D03*
D18*
G01*
X18161000Y-8356600D03*
D19*
G01*
X14544675Y-11455400D03*
D20*
G01*
X14798675Y-11455400D03*
G01*
X15052675Y-11455400D03*
G01*
X15052675Y-12280900D03*
G01*
X14798675Y-12280900D03*
D19*
G01*
X14541500Y-12280900D03*
D20*
G01*
X15306675Y-12280900D03*
D19*
G01*
X13246100Y-8394700D03*
D14*
G01*
X13500100Y-8394700D03*
D20*
G01*
X13754100Y-8394700D03*
G01*
X13754100Y-9029700D03*
D14*
G01*
X13500100Y-9029700D03*
D19*
G01*
X13246100Y-9029700D03*
D20*
G01*
X13754100Y-9664700D03*
D14*
G01*
X13500100Y-9664700D03*
D19*
G01*
X13246100Y-9664700D03*
D20*
G01*
X13754100Y-10299700D03*
D14*
G01*
X13500100Y-10299700D03*
D19*
G01*
X13246100Y-10299700D03*
D18*
G01*
X18173700Y-12319000D03*
D14*
G01*
X18427700Y-12319000D03*
D19*
G01*
X13246100Y-10934700D03*
D14*
G01*
X13500100Y-10934700D03*
D20*
G01*
X13754100Y-10934700D03*
D19*
G01*
X16992600Y-11468100D03*
D14*
G01*
X16738600Y-11468100D03*
D20*
G01*
X16484600Y-11468100D03*
D19*
G01*
X16998950Y-12293600D03*
D20*
G01*
X16490950Y-12293600D03*
G01*
X15306675Y-11455400D03*
D19*
G01*
X16738600Y-12293600D03*
M02*
